<mxfile host="Electron" modified="2024-06-01T10:30:36.397Z" agent="Mozilla/5.0 (Windows NT 10.0; Win64; x64) AppleWebKit/537.36 (KHTML, like Gecko) draw.io/24.4.8 Chrome/124.0.6367.207 Electron/30.0.6 Safari/537.36" etag="aqat8211UQmJrBKJlws0" version="24.4.8" type="device">
  <diagram name="페이지-1" id="hYbyOHfXpUy2tI1WrXhF">
    <mxGraphModel dx="1418" dy="820" grid="1" gridSize="10" guides="1" tooltips="1" connect="1" arrows="1" fold="1" page="1" pageScale="1" pageWidth="827" pageHeight="1169" math="0" shadow="0">
      <root>
        <mxCell id="0" />
        <mxCell id="1" parent="0" />
        <mxCell id="ahTudF8NTMFu6lrU462i-8" value="textBox" style="swimlane;fontStyle=1;align=center;verticalAlign=top;childLayout=stackLayout;horizontal=1;startSize=26;horizontalStack=0;resizeParent=1;resizeParentMax=0;resizeLast=0;collapsible=1;marginBottom=0;whiteSpace=wrap;html=1;" parent="1" vertex="1">
          <mxGeometry x="20" y="286" width="260" height="34" as="geometry" />
        </mxCell>
        <mxCell id="ahTudF8NTMFu6lrU462i-10" value="" style="line;strokeWidth=1;fillColor=none;align=left;verticalAlign=middle;spacingTop=-1;spacingLeft=3;spacingRight=3;rotatable=0;labelPosition=right;points=[];portConstraint=eastwest;strokeColor=inherit;" parent="ahTudF8NTMFu6lrU462i-8" vertex="1">
          <mxGeometry y="26" width="260" height="8" as="geometry" />
        </mxCell>
        <mxCell id="e16tPV_tY78F8UG4q2W--8" value="Account" style="swimlane;fontStyle=1;align=center;verticalAlign=top;childLayout=stackLayout;horizontal=1;startSize=26;horizontalStack=0;resizeParent=1;resizeParentMax=0;resizeLast=0;collapsible=1;marginBottom=0;whiteSpace=wrap;html=1;" parent="1" vertex="1">
          <mxGeometry x="370" y="286" width="230" height="34" as="geometry" />
        </mxCell>
        <mxCell id="e16tPV_tY78F8UG4q2W--10" value="" style="line;strokeWidth=1;fillColor=none;align=left;verticalAlign=middle;spacingTop=-1;spacingLeft=3;spacingRight=3;rotatable=0;labelPosition=right;points=[];portConstraint=eastwest;strokeColor=inherit;" parent="e16tPV_tY78F8UG4q2W--8" vertex="1">
          <mxGeometry y="26" width="230" height="8" as="geometry" />
        </mxCell>
        <mxCell id="e16tPV_tY78F8UG4q2W--16" value="mainUI" style="swimlane;fontStyle=1;align=center;verticalAlign=top;childLayout=stackLayout;horizontal=1;startSize=26;horizontalStack=0;resizeParent=1;resizeParentMax=0;resizeLast=0;collapsible=1;marginBottom=0;whiteSpace=wrap;html=1;" parent="1" vertex="1">
          <mxGeometry x="350" y="390" width="290" height="34" as="geometry" />
        </mxCell>
        <mxCell id="e16tPV_tY78F8UG4q2W--18" value="" style="line;strokeWidth=1;fillColor=none;align=left;verticalAlign=middle;spacingTop=-1;spacingLeft=3;spacingRight=3;rotatable=0;labelPosition=right;points=[];portConstraint=eastwest;strokeColor=inherit;" parent="e16tPV_tY78F8UG4q2W--16" vertex="1">
          <mxGeometry y="26" width="290" height="8" as="geometry" />
        </mxCell>
        <mxCell id="e16tPV_tY78F8UG4q2W--26" value="" style="endArrow=open;startArrow=none;endFill=0;startFill=0;html=1;rounded=0;exitX=0.31;exitY=-0.118;exitDx=0;exitDy=0;dashed=1;exitPerimeter=0;" parent="1" source="e16tPV_tY78F8UG4q2W--16" edge="1">
          <mxGeometry width="160" relative="1" as="geometry">
            <mxPoint x="630.0000000000001" y="615.1800000000001" as="sourcePoint" />
            <mxPoint x="440" y="320" as="targetPoint" />
          </mxGeometry>
        </mxCell>
        <mxCell id="e16tPV_tY78F8UG4q2W--27" value="uses" style="text;strokeColor=none;fillColor=none;align=left;verticalAlign=top;spacingLeft=4;spacingRight=4;overflow=hidden;rotatable=0;points=[[0,0.5],[1,0.5]];portConstraint=eastwest;whiteSpace=wrap;html=1;" parent="1" vertex="1">
          <mxGeometry x="450" y="354" width="100" height="26" as="geometry" />
        </mxCell>
        <mxCell id="e16tPV_tY78F8UG4q2W--29" value="uses" style="text;strokeColor=none;fillColor=none;align=left;verticalAlign=top;spacingLeft=4;spacingRight=4;overflow=hidden;rotatable=0;points=[[0,0.5],[1,0.5]];portConstraint=eastwest;whiteSpace=wrap;html=1;" parent="1" vertex="1">
          <mxGeometry x="240" y="380" width="100" height="26" as="geometry" />
        </mxCell>
        <mxCell id="e16tPV_tY78F8UG4q2W--30" value="" style="endArrow=open;startArrow=none;endFill=0;startFill=0;html=1;rounded=0;entryX=0.492;entryY=1.125;entryDx=0;entryDy=0;dashed=1;exitX=0;exitY=0.294;exitDx=0;exitDy=0;entryPerimeter=0;exitPerimeter=0;" parent="1" target="ahTudF8NTMFu6lrU462i-10" edge="1" source="e16tPV_tY78F8UG4q2W--16">
          <mxGeometry width="160" relative="1" as="geometry">
            <mxPoint x="360" y="500" as="sourcePoint" />
            <mxPoint x="303.1199999999999" y="548.578" as="targetPoint" />
            <Array as="points">
              <mxPoint x="148" y="400" />
            </Array>
          </mxGeometry>
        </mxCell>
      </root>
    </mxGraphModel>
  </diagram>
</mxfile>
